# xmcd
#
# Track frame offsets: 
#        150
#        23031
#        44318
#        75489
#        96613
#        119976
#        151439
#        175930
#
# Disc length: 2807 seconds
#
# Revision: 0
# Processed by: cddbd v1.5.2PL0 Copyright (c) Steve Scherf et al.
# Submitted via: ExactAudioCopy v0.99pb4
#
DISCID=660af508
DTITLE=www.DJLUV.in - Suno Zara
DYEAR=2009
DGENRE=Pop
TTITLE0=Suno Zara
TTITLE1=Ae Chaand Teri Chaandni
TTITLE2=Ae Ghata Tu Mujhe
TTITLE3=Dil Kahe
TTITLE4=Doobi Doobi Rehti Hoon
TTITLE5=Kya Tumhe Bhi
TTITLE6=Mera Dil
TTITLE7=Allahu
EXTD=
EXTT0=
EXTT1=
EXTT2=
EXTT3=
EXTT4=
EXTT5=
EXTT6=
EXTT7=
PLAYORDER=
